<svg xmlns="http://www.w3.org/2000/svg" width="1180" height="2480" viewBox="0 0 1180 2480">
<defs><marker id="arrow" markerWidth="12" markerHeight="12" refX="9" refY="3" orient="auto" markerUnits="strokeWidth"><path d="M0,0 L0,6 L9,3 z" fill="#777"/></marker></defs>
<rect width="100%" height="100%" fill="#ffffff"/>
<text x="590" y="58" text-anchor="middle" font-family="Microsoft YaHei, SimHei, Arial" font-size="34" font-weight="700" fill="#1f2933">RAG 主流程图</text>
<text x="590" y="98" text-anchor="middle" font-family="Microsoft YaHei, SimHei, Arial" font-size="18" fill="#52616b">用户问题路由 → 检索融合重排 → 来源约束生成 → 前端展示</text>
<rect x="430" y="140" width="320" height="70" rx="4" fill="#F7F7F2" stroke="#A0A0A0" stroke-width="2"/>
<text x="590" y="175" text-anchor="middle" dominant-baseline="middle" font-size="23" font-weight="500" fill="#2f3437">用户自由提问</text>
<rect x="390" y="245" width="400" height="88" rx="4" fill="#EEF5FF" stroke="#4F8FD8" stroke-width="2"/>
<text x="590" y="257.95" text-anchor="middle" dominant-baseline="middle" font-size="23" font-weight="500" fill="#2f3437">ConversationEng</text>
<text x="590" y="289" text-anchor="middle" dominant-baseline="middle" font-size="23" font-weight="500" fill="#2f3437">ine</text>
<text x="590" y="320.05" text-anchor="middle" dominant-baseline="middle" font-size="23" font-weight="500" fill="#2f3437">意图路由</text>
<polygon points="590,380 860,470 590,560 320,470" fill="#FFF5D8" stroke="#B7791F" stroke-width="2.5"/>
<text x="590" y="455.15" text-anchor="middle" dominant-baseline="middle" font-size="22" font-weight="600" fill="#2f3437">是否费用/资格/最快拿证</text>
<text x="590" y="484.84999999999997" text-anchor="middle" dominant-baseline="middle" font-size="22" font-weight="600" fill="#2f3437">人工老师等高意向问题</text>
<rect x="80" y="620" width="320" height="92" rx="4" fill="#EEF5FF" stroke="#4F8FD8" stroke-width="2"/>
<text x="240" y="634.95" text-anchor="middle" dominant-baseline="middle" font-size="23" font-weight="500" fill="#2f3437">跳过 RAG</text>
<text x="240" y="666" text-anchor="middle" dominant-baseline="middle" font-size="23" font-weight="500" fill="#2f3437">进入 lead_hook 留手</text>
<text x="240" y="697.0500000000001" text-anchor="middle" dominant-baseline="middle" font-size="23" font-weight="500" fill="#2f3437">机号</text>
<rect x="720" y="620" width="320" height="92" rx="4" fill="#ECF8F1" stroke="#4EA66A" stroke-width="2"/>
<text x="880" y="650.475" text-anchor="middle" dominant-baseline="middle" font-size="23" font-weight="500" fill="#2f3437">RagService.answ</text>
<text x="880" y="681.525" text-anchor="middle" dominant-baseline="middle" font-size="23" font-weight="500" fill="#2f3437">er</text>
<rect x="230" y="780" width="320" height="82" rx="4" fill="#ECF8F1" stroke="#4EA66A" stroke-width="2"/>
<text x="390" y="805.475" text-anchor="middle" dominant-baseline="middle" font-size="23" font-weight="500" fill="#2f3437">BM25 关键词检索 Top2</text>
<text x="390" y="836.525" text-anchor="middle" dominant-baseline="middle" font-size="23" font-weight="500" fill="#2f3437">0</text>
<rect x="650" y="780" width="320" height="82" rx="4" fill="#ECF8F1" stroke="#4EA66A" stroke-width="2"/>
<text x="810" y="821" text-anchor="middle" dominant-baseline="middle" font-size="23" font-weight="500" fill="#2f3437">可选向量检索 Top20</text>
<rect x="430" y="965" width="320" height="82" rx="4" fill="#ECF8F1" stroke="#4EA66A" stroke-width="2"/>
<text x="590" y="1006" text-anchor="middle" dominant-baseline="middle" font-size="23" font-weight="500" fill="#2f3437">RRF 融合 Top20</text>
<rect x="385" y="1135" width="410" height="94" rx="4" fill="#ECF8F1" stroke="#4EA66A" stroke-width="2"/>
<text x="590" y="1150.95" text-anchor="middle" dominant-baseline="middle" font-size="23" font-weight="500" fill="#2f3437">LightweightRera</text>
<text x="590" y="1182" text-anchor="middle" dominant-baseline="middle" font-size="23" font-weight="500" fill="#2f3437">nker 重排</text>
<text x="590" y="1213.05" text-anchor="middle" dominant-baseline="middle" font-size="23" font-weight="500" fill="#2f3437">Top5</text>
<polygon points="590,1290 840,1370 590,1450 340,1370" fill="#FFF5D8" stroke="#B7791F" stroke-width="2.5"/>
<text x="590" y="1370" text-anchor="middle" dominant-baseline="middle" font-size="22" font-weight="600" fill="#2f3437">置信度与实体覆盖检查</text>
<rect x="140" y="1515" width="330" height="92" rx="4" fill="#FFECEC" stroke="#D64545" stroke-width="2"/>
<text x="305" y="1545.475" text-anchor="middle" dominant-baseline="middle" font-size="23" font-weight="500" fill="#2f3437">返回无明确依据</text>
<text x="305" y="1576.5249999999999" text-anchor="middle" dominant-baseline="middle" font-size="23" font-weight="500" fill="#2f3437">软引导留资</text>
<rect x="710" y="1515" width="330" height="92" rx="4" fill="#ECF8F1" stroke="#4EA66A" stroke-width="2"/>
<text x="875" y="1561" text-anchor="middle" dominant-baseline="middle" font-size="23" font-weight="500" fill="#2f3437">取 Top3 来源生成回答</text>
<polygon points="875,1670 995,1735 875,1800 755,1735" fill="#FFF5D8" stroke="#B7791F" stroke-width="2.5"/>
<text x="875" y="1735" text-anchor="middle" dominant-baseline="middle" font-size="22" font-weight="600" fill="#2f3437">Qwen LLM 可用?</text>
<rect x="410" y="1840" width="330" height="92" rx="4" fill="#ECF8F1" stroke="#4EA66A" stroke-width="2"/>
<text x="575" y="1854.95" text-anchor="middle" dominant-baseline="middle" font-size="23" font-weight="500" fill="#2f3437">generate_rag_an</text>
<text x="575" y="1886" text-anchor="middle" dominant-baseline="middle" font-size="23" font-weight="500" fill="#2f3437">swer</text>
<text x="575" y="1917.05" text-anchor="middle" dominant-baseline="middle" font-size="23" font-weight="500" fill="#2f3437">仅基于检索资料生成</text>
<rect x="800" y="1840" width="280" height="82" rx="4" fill="#ECF8F1" stroke="#4EA66A" stroke-width="2"/>
<text x="940" y="1881" text-anchor="middle" dominant-baseline="middle" font-size="23" font-weight="500" fill="#2f3437">抽取式 fallback</text>
<rect x="455" y="2025" width="360" height="82" rx="4" fill="#ECF8F1" stroke="#4EA66A" stroke-width="2"/>
<text x="635" y="2066" text-anchor="middle" dominant-baseline="middle" font-size="23" font-weight="500" fill="#2f3437">必要时压缩到 900 字以内</text>
<rect x="455" y="2175" width="360" height="82" rx="4" fill="#ECF8F1" stroke="#4EA66A" stroke-width="2"/>
<text x="635" y="2216" text-anchor="middle" dominant-baseline="middle" font-size="23" font-weight="500" fill="#2f3437">拼接来源 + 引导语</text>
<rect x="420" y="2325" width="430" height="82" rx="4" fill="#F7F7F2" stroke="#A0A0A0" stroke-width="2"/>
<text x="635" y="2366" text-anchor="middle" dominant-baseline="middle" font-size="23" font-weight="500" fill="#2f3437">前端展示回答和 RAG 来源</text>
<line x1="590" y1="210" x2="590" y2="245" stroke="#777" stroke-width="2.5" marker-end="url(#arrow)"/>
<line x1="590" y1="333" x2="590" y2="380" stroke="#777" stroke-width="2.5" marker-end="url(#arrow)"/>
<line x1="320" y1="470" x2="240" y2="620" stroke="#777" stroke-width="2.5" marker-end="url(#arrow)"/>
<rect x="253" y="527" width="54" height="36" rx="4" fill="#fff" stroke="#e5e7eb"/>
<text x="280" y="546" text-anchor="middle" dominant-baseline="middle" font-size="18" fill="#4b5563">是</text>
<line x1="860" y1="470" x2="880" y2="620" stroke="#777" stroke-width="2.5" marker-end="url(#arrow)"/>
<rect x="843" y="527" width="54" height="36" rx="4" fill="#fff" stroke="#e5e7eb"/>
<text x="870" y="546" text-anchor="middle" dominant-baseline="middle" font-size="18" fill="#4b5563">否</text>
<path d="M 880 712 L 880 746 L 390 746 L 390 780" fill="none" stroke="#777" stroke-width="2.5" marker-end="url(#arrow)"/>
<path d="M 880 712 L 880 746 L 810 746 L 810 780" fill="none" stroke="#777" stroke-width="2.5" marker-end="url(#arrow)"/>
<path d="M 390 862 L 390 913.5 L 590 913.5 L 590 965" fill="none" stroke="#777" stroke-width="2.5" marker-end="url(#arrow)"/>
<path d="M 810 862 L 810 913.5 L 590 913.5 L 590 965" fill="none" stroke="#777" stroke-width="2.5" marker-end="url(#arrow)"/>
<line x1="590" y1="1047" x2="590" y2="1135" stroke="#777" stroke-width="2.5" marker-end="url(#arrow)"/>
<line x1="590" y1="1229" x2="590" y2="1290" stroke="#777" stroke-width="2.5" marker-end="url(#arrow)"/>
<line x1="340" y1="1370" x2="305" y2="1515" stroke="#777" stroke-width="2.5" marker-end="url(#arrow)"/>
<rect x="284.5" y="1424.5" width="76" height="36" rx="4" fill="#fff" stroke="#e5e7eb"/>
<text x="322.5" y="1443.5" text-anchor="middle" dominant-baseline="middle" font-size="18" fill="#4b5563">不通过</text>
<line x1="840" y1="1370" x2="875" y2="1515" stroke="#777" stroke-width="2.5" marker-end="url(#arrow)"/>
<rect x="828.5" y="1424.5" width="58" height="36" rx="4" fill="#fff" stroke="#e5e7eb"/>
<text x="857.5" y="1443.5" text-anchor="middle" dominant-baseline="middle" font-size="18" fill="#4b5563">通过</text>
<line x1="875" y1="1607" x2="875" y2="1670" stroke="#777" stroke-width="2.5" marker-end="url(#arrow)"/>
<line x1="755" y1="1735" x2="575" y2="1840" stroke="#777" stroke-width="2.5" marker-end="url(#arrow)"/>
<rect x="638" y="1769.5" width="54" height="36" rx="4" fill="#fff" stroke="#e5e7eb"/>
<text x="665" y="1788.5" text-anchor="middle" dominant-baseline="middle" font-size="18" fill="#4b5563">是</text>
<line x1="995" y1="1735" x2="940" y2="1840" stroke="#777" stroke-width="2.5" marker-end="url(#arrow)"/>
<rect x="940.5" y="1769.5" width="54" height="36" rx="4" fill="#fff" stroke="#e5e7eb"/>
<text x="967.5" y="1788.5" text-anchor="middle" dominant-baseline="middle" font-size="18" fill="#4b5563">否</text>
<path d="M 575 1932 L 575 1978.5 L 635 1978.5 L 635 2025" fill="none" stroke="#777" stroke-width="2.5" marker-end="url(#arrow)"/>
<path d="M 940 1922 L 940 1973.5 L 635 1973.5 L 635 2025" fill="none" stroke="#777" stroke-width="2.5" marker-end="url(#arrow)"/>
<line x1="635" y1="2107" x2="635" y2="2175" stroke="#777" stroke-width="2.5" marker-end="url(#arrow)"/>
<line x1="635" y1="2257" x2="635" y2="2325" stroke="#777" stroke-width="2.5" marker-end="url(#arrow)"/>
<text x="590" y="2448" text-anchor="middle" font-family="Microsoft YaHei, SimHei, Arial" font-size="17" fill="#6b7280">说明：高意向问题不走 RAG，直接进入留资；事实类问题才进入检索、重排和来源约束生成。</text>
</svg>